<?xml version="1.0" encoding="UTF-8"?>
<svg
    xmlns="http://www.w3.org/2000/svg"
    width="current"
    height="current"
    viewBox="0 0 24 24"
>
        <path d="M19.333,2.94l1.27,.449,.423,1.269c.068,.204,.26,.342,.475,.342s.406-.138,.475-.342l.421-1.263,1.263-.421c.204-.068,.342-.259,.342-.474s-.138-.406-.342-.474l-1.263-.421-.421-1.263c-.137-.408-.812-.408-.949,0l-.419,1.257-1.256,.393c-.205,.064-.347,.252-.351,.468s.13,.409,.333,.48Z"/>
        <path d="M23.686,19.036l-2.658-1.063-1.063-2.658c-.15-.38-.777-.38-.928,0l-1.062,2.653-2.651,1.003c-.191,.073-.319,.254-.323,.458s.117,.391,.306,.47l2.665,1.123,1.065,2.663c.075,.19,.26,.314,.464,.314s.389-.125,.464-.314l1.063-2.658,2.658-1.063c.19-.076,.314-.26,.314-.464s-.124-.388-.314-.464Zm-3.229,1.143c-.127,.051-.228,.152-.278,.279l-.679,1.696-.679-1.696c-.049-.124-.146-.223-.27-.275l-1.705-.719,1.688-.639c.131-.05,.235-.152,.287-.282l.679-1.696,.679,1.696c.051,.127,.151,.228,.278,.279l1.696,.679-1.696,.679Z"/>
        <path d="M18.935,12.459c.647-.207,1.065-.78,1.065-1.459s-.418-1.252-1.077-1.463l-5.767-1.692-1.678-5.759c-.198-.65-.766-1.076-1.445-1.085-.666,.028-1.257,.402-1.479,1.063l-1.709,5.78-5.76,1.679c-.65,.198-1.076,.766-1.085,1.445-.009,.679,.402,1.257,1.063,1.479l5.782,1.709,1.696,5.78c.207,.647,.78,1.065,1.459,1.065s1.252-.418,1.463-1.077l1.693-5.767,5.767-1.692,.012-.004Zm-.3-.954l-6.022,1.768c-.164,.048-.291,.176-.339,.339l-1.766,6.018c-.11,.343-.416,.37-.507,.37-.091,0-.397-.027-.503-.358l-1.77-6.029c-.048-.163-.175-.291-.338-.339l-6.025-1.781c-.342-.114-.364-.421-.363-.512,.001-.091,.032-.397,.371-.5l6.017-1.753c.164-.047,.292-.175,.34-.338l1.781-6.025c.112-.334,.407-.363,.505-.363h.006c.091,.001,.397,.032,.5,.371l1.753,6.016c.048,.164,.175,.292,.339,.34l6.018,1.766c.344,.11,.37,.416,.37,.507,0,.091-.026,.394-.365,.505Z"/>
</svg>
