<svg
	width="current"
	height="current"
	viewBox="0 0 144 42"
	xmlns="http://www.w3.org/2000/svg"
	xmlns:xlink="http://www.w3.org/1999/xlink"
>
	<path d="M25.502 26.9473Q26.1699 24.498 26.1699 21.5293Q26.1699 17.373 24.9268 14.2559Q23.6836 11.1387 21.4941 9.54297L27.1719 9.54297Q27.3574 9.54297 27.4502 9.4502Q27.543 9.35742 27.543 9.17188L27.543 8.4668Q27.543 8.28125 27.4502 8.18848Q27.3574 8.0957 27.1719 8.0957L17.8574 8.0957L17.8574 3.79102Q17.8574 3.67969 17.7461 3.56836Q17.6793 3.50159 17.5991 3.47485Q17.5457 3.45703 17.4863 3.45703L16.8555 3.45703Q16.7763 3.45703 16.713 3.48871Q16.6576 3.51642 16.6143 3.56836Q16.5215 3.67969 16.5215 3.79102L16.5215 8.0957L7.16993 8.0957Q7.0586 8.0957 6.94727 8.20703Q6.88048 8.27383 6.85376 8.35397Q6.83595 8.40741 6.83595 8.4668L6.83595 9.17188Q6.83595 9.23126 6.85376 9.2847Q6.88048 9.36484 6.94727 9.43164Q7.0586 9.54297 7.16993 9.54297L12.8477 9.54297Q10.6953 11.1387 9.4336 14.2559Q8.17188 17.373 8.17188 21.5293Q8.17188 24.498 8.83985 26.9473Q9.50782 29.3965 10.6953 31.1592Q11.8828 32.9219 13.5342 33.9053Q14.1166 34.2521 14.7429 34.4766Q15.8923 34.8887 17.1895 34.8887Q18.3335 34.8887 19.3708 34.556Q20.1168 34.3167 20.8076 33.9053Q22.459 32.9219 23.6465 31.1592Q24.834 29.3965 25.502 26.9473ZM33.9683 37.5546Q34 37.4913 34 37.4121L34 5.23828Q34 5.15912 33.9683 5.09576Q33.9406 5.04034 33.8887 4.99707Q33.7774 4.9043 33.666 4.9043L32.9609 4.9043Q32.794 4.9043 32.7105 4.98779Q32.627 5.07129 32.627 5.23828L32.627 37.4121Q32.627 37.5791 32.7105 37.6626Q32.794 37.7461 32.9609 37.7461L33.666 37.7461Q33.7774 37.7461 33.8887 37.6533Q33.9406 37.61 33.9683 37.5546ZM58.6221 26.0752Q59.2715 23.459 59.3086 20.2676L66.0625 20.2676L66.0625 37.4121Q66.0625 37.4913 66.0942 37.5546Q66.1219 37.61 66.1738 37.6533Q66.2852 37.7461 66.3965 37.7461L67.1016 37.7461Q67.2686 37.7461 67.3521 37.6626Q67.4356 37.5791 67.4356 37.4121L67.4356 5.23828Q67.4356 5.07129 67.3521 4.98779Q67.2686 4.9043 67.1016 4.9043L66.3965 4.9043Q66.2852 4.9043 66.1738 4.99707Q66.1219 5.04034 66.0942 5.09576Q66.0625 5.15912 66.0625 5.23828L66.0625 18.8203L59.2715 18.8203Q59.1602 15.7773 58.4922 13.2725Q57.8242 10.7676 56.6553 8.98633Q55.5025 7.22977 53.8807 6.24908Q53.8579 6.23532 53.835 6.22168Q53.3573 5.93726 52.8471 5.73511Q51.5933 5.23828 50.1426 5.23828Q48.6217 5.23828 47.3232 5.77557Q46.7841 5.99872 46.2832 6.31445Q44.5762 7.39062 43.4072 9.32031Q42.2383 11.25 41.6074 13.9404Q40.9766 16.6309 40.9766 19.8965Q40.9766 23.1621 41.6074 25.8525Q42.2383 28.543 43.4072 30.4727Q44.5762 32.4023 46.2832 33.4785Q46.7841 33.7943 47.3232 34.0174Q48.6217 34.5547 50.1426 34.5547Q51.7017 34.5547 53.0188 33.9902Q53.4887 33.7888 53.9277 33.5156Q55.5977 32.4766 56.7852 30.584Q57.9727 28.6914 58.6221 26.0752ZM100.806 23.7558Q100.908 23.664 100.908 23.459L100.908 5.23828Q100.908 5.07129 100.825 4.98779Q100.741 4.9043 100.574 4.9043L99.8691 4.9043Q99.7578 4.9043 99.6465 4.99707Q99.5945 5.04034 99.5668 5.09576Q99.5352 5.15912 99.5352 5.23828L99.5352 23.459Q99.5352 23.5184 99.553 23.5718Q99.5797 23.6519 99.6465 23.7188Q99.7578 23.8301 99.8691 23.8301L100.574 23.8301Q100.724 23.8301 100.806 23.7558ZM122.217 13.782Q122.298 13.8477 122.432 13.8477L127.516 13.8477L127.516 22.3828Q127.516 22.5684 127.608 22.6611Q127.701 22.7539 127.887 22.7539L128.518 22.7539Q128.667 22.7539 128.75 22.6796Q128.852 22.5878 128.852 22.3828L128.852 5.23828Q128.852 5.07129 128.768 4.98779Q128.685 4.9043 128.518 4.9043L127.887 4.9043Q127.682 4.9043 127.59 5.00623Q127.516 5.08881 127.516 5.23828L127.516 12.4004L122.432 12.4004Q122.352 12.4004 122.289 12.4321Q122.234 12.4598 122.19 12.5117Q122.098 12.623 122.098 12.7344L122.098 13.4395Q122.098 13.684 122.217 13.782ZM134.873 24.8319Q134.975 24.7402 134.975 24.5352L134.975 5.23828Q134.975 5.07129 134.891 4.98779Q134.808 4.9043 134.641 4.9043L133.973 4.9043Q133.768 4.9043 133.676 5.00623Q133.602 5.08881 133.602 5.23828L133.602 24.5352Q133.602 24.7207 133.694 24.8135Q133.787 24.9062 133.973 24.9062L134.641 24.9062Q134.79 24.9062 134.873 24.8319ZM92.0103 13.681Q92.0762 13.5822 92.0762 13.4395L92.0762 5.60938Q92.0762 5.54999 92.0584 5.49658Q92.0316 5.41638 91.9649 5.34961Q91.8535 5.23828 91.7422 5.23828L75.7852 5.23828Q75.6738 5.23828 75.5625 5.34961Q75.4957 5.41638 75.469 5.49658Q75.4512 5.54999 75.4512 5.60938L75.4512 6.31445Q75.4512 6.37384 75.469 6.42728Q75.4957 6.50742 75.5625 6.57422Q75.6738 6.68555 75.7852 6.68555L90.7031 6.68555L90.7031 12.4004L75.7852 12.4004Q75.6738 12.4004 75.5625 12.5117Q75.4512 12.623 75.4512 12.7344L75.4512 19.8965Q75.4512 20.2477 75.5875 20.534Q75.6817 20.7317 75.8408 20.8984Q76.0038 21.0692 76.2024 21.1685Q76.4788 21.3066 76.8242 21.3066L93.7461 21.3066Q93.8253 21.3066 93.8886 21.275Q93.944 21.2473 93.9873 21.1953Q94.0801 21.084 94.0801 20.9727L94.0801 20.2676Q94.0801 20.0626 93.9781 19.9708Q93.8956 19.8965 93.7461 19.8965L76.8242 19.8965L76.8242 13.8477L91.7422 13.8477Q91.8535 13.8477 91.9649 13.7363Q91.9905 13.7106 92.0103 13.681ZM107.848 7.01953L110.223 7.01953L110.223 19.1914L107.18 19.1914Q106.975 19.1914 106.883 19.2934Q106.809 19.3759 106.809 19.5254L106.809 20.2676Q106.809 20.3789 106.901 20.4902Q106.918 20.5103 106.938 20.5268Q107.028 20.6016 107.18 20.6016L123.434 20.6016Q123.513 20.6016 123.576 20.5699Q123.632 20.5422 123.675 20.4902Q123.768 20.3789 123.768 20.2676L123.768 19.5254Q123.768 19.3584 123.684 19.2749Q123.601 19.1914 123.434 19.1914L120.391 19.1914L120.391 7.01953L122.766 7.01953Q122.825 7.01953 122.878 7.00171Q122.959 6.97501 123.025 6.9082Q123.137 6.79688 123.137 6.68555L123.137 5.98047Q123.137 5.79492 123.044 5.70215Q122.951 5.60938 122.766 5.60938L107.848 5.60938Q107.698 5.60938 107.616 5.68372Q107.514 5.77545 107.514 5.98047L107.514 6.68555Q107.514 6.79688 107.606 6.9082Q107.65 6.96014 107.705 6.98785Q107.768 7.01953 107.848 7.01953ZM57.3789 14.5898Q57.9356 17.002 57.9356 19.8965Q57.9356 22.7539 57.3789 25.1846Q56.8223 27.6152 55.8018 29.3779Q54.7813 31.1406 53.3525 32.124Q52.7459 32.5416 52.0757 32.7818Q51.1675 33.1074 50.1426 33.1074Q49.1177 33.1074 48.2095 32.7818Q47.5393 32.5416 46.9326 32.124Q45.5039 31.1406 44.4649 29.3779Q43.4258 27.6152 42.8691 25.1846Q42.3125 22.7539 42.3125 19.8965Q42.3125 17.002 42.8691 14.5898Q43.4258 12.1777 44.4649 10.415Q45.5039 8.65234 46.9326 7.66895Q47.5393 7.2514 48.2095 7.01114Q49.1177 6.68555 50.1426 6.68555Q51.1675 6.68555 52.0757 7.01114Q52.7459 7.2514 53.3525 7.66895Q54.7813 8.65234 55.8018 10.415Q56.8223 12.1777 57.3789 14.5898ZM119.018 19.1914L111.559 19.1914L111.559 7.01953L119.018 7.01953L119.018 19.1914ZM24.2588 16.8164Q24.7969 19.0059 24.7969 21.5293Q24.7969 24.0156 24.2588 26.2051Q23.7207 28.3945 22.7188 30.0088Q21.7168 31.623 20.3066 32.5508Q19.6497 32.983 18.9282 33.2139Q18.1012 33.4785 17.1895 33.4785Q16.1445 33.4785 15.2194 33.1455Q14.6004 32.9227 14.0352 32.5508Q12.625 31.623 11.6231 30.0088Q10.6211 28.3945 10.083 26.2051Q9.54493 24.0156 9.54493 21.5293Q9.54493 19.0059 10.083 16.8164Q10.6211 14.627 11.6231 13.0127Q12.625 11.3984 14.0352 10.4707Q14.6004 10.0988 15.2194 9.87601Q16.1445 9.54297 17.1895 9.54297Q18.1012 9.54297 18.9282 9.80762Q19.6497 10.0385 20.3066 10.4707Q21.7168 11.3984 22.7188 13.0127Q23.7207 14.627 24.2588 16.8164ZM134.826 38.1357Q134.975 38.1172 135.049 38.043L135.568 37.5977Q135.643 37.5234 135.661 37.3379Q135.676 37.1917 135.61 37.1146Q135.592 37.0938 135.568 37.0781L124.102 24.498Q123.988 24.3562 123.842 24.2685Q123.606 24.127 123.285 24.127Q122.994 24.127 122.761 24.2433Q122.579 24.3348 122.432 24.498L111.002 37.0781Q110.978 37.0938 110.961 37.1146Q110.895 37.1917 110.909 37.3379Q110.928 37.5234 111.002 37.5977L111.484 38.043Q111.661 38.1754 111.811 38.1503Q111.914 38.1332 112.004 38.043L123.285 25.6113L134.566 38.043Q134.629 38.106 134.704 38.1274Q134.762 38.1438 134.826 38.1357ZM100.915 33.439Q101.242 32.5345 101.242 31.5117Q101.242 30.4889 100.915 29.5844Q100.708 29.0122 100.37 28.4873Q99.4981 27.1328 97.9024 26.168Q96.3066 25.2031 94.1172 24.6836Q91.9277 24.1641 89.3301 24.1641Q86.7324 24.1641 84.5615 24.6836Q82.3906 25.2031 80.8135 26.168Q79.2363 27.1328 78.3643 28.4873Q78.0263 29.0122 77.8193 29.5844Q77.4922 30.4889 77.4922 31.5117Q77.4922 32.5345 77.8193 33.439Q78.0263 34.0113 78.3643 34.5361Q79.2363 35.8906 80.8135 36.8555Q82.3906 37.8203 84.5615 38.3398Q86.7324 38.8594 89.3301 38.8594Q91.9277 38.8594 94.1172 38.3398Q96.3066 37.8203 97.9024 36.8555Q99.4981 35.8906 100.37 34.5361Q100.708 34.0113 100.915 33.439ZM99.7181 30.4113Q99.8691 30.9399 99.8691 31.5117Q99.8691 32.0835 99.7181 32.6122Q99.5261 33.2843 99.0899 33.8867Q98.3106 34.9629 96.919 35.7422Q95.5274 36.5215 93.5977 36.9668Q91.668 37.4121 89.3301 37.4121Q87.0293 37.4121 85.0996 36.9668Q83.1699 36.5215 81.7783 35.7422Q80.3867 34.9629 79.626 33.8867Q79.2154 33.3059 79.0264 32.6602Q78.8652 32.1095 78.8652 31.5117Q78.8652 30.9139 79.0264 30.3633Q79.2154 29.7176 79.626 29.1367Q80.3867 28.0605 81.7783 27.2812Q83.1699 26.502 85.0996 26.0566Q87.0293 25.6113 89.3301 25.6113Q91.668 25.6113 93.5977 26.0566Q95.5274 26.502 96.919 27.2812Q98.3106 28.0605 99.0899 29.1367Q99.5261 29.7391 99.7181 30.4113Z" />
</svg>
	